Coordinates
version=1
nRows=24
nColumns=24
inDegrees=yes

Units are S.I. units (second, meters, Newtons, ...)
Angles are in degrees.

endheader
time	pelvis_tilt	pelvis_list	pelvis_rotation	pelvis_tx	pelvis_ty	pelvis_tz	hip_flexion_r	hip_adduction_r	hip_rotation_r	knee_angle_r	ankle_angle_r	subtalar_angle_r	mtp_angle_r	hip_flexion_l	hip_adduction_l	hip_rotation_l	knee_angle_l	ankle_angle_l	subtalar_angle_l	mtp_angle_l	lumbar_extension	lumbar_bending	lumbar_rotation
      6.52000000	     -5.29173590	      1.59436756	    -18.58357318	     -0.04876430	      0.64299425	      0.17742004	    -18.73440880	     -4.31284557	      5.88551581	    -14.43912383	      1.74463382	     -1.41195389	      0.00000000	     33.40196336	     -3.63344941	     -5.21420651	    -20.43501432	     -3.85501510	    -17.20131570	      0.00000000	     -7.13745856	     -7.66969343	     22.97445918
      6.53000000	     -5.34381951	      2.31250468	    -18.69576507	     -0.03376343	      0.64275728	      0.17643785	    -17.36153688	     -5.14115940	      6.32247916	    -17.91132006	     -2.47666633	     -3.42278041	      0.00000000	     34.38900417	     -2.61771121	     -5.34545838	    -24.24472239	     -2.29841139	    -17.75091342	      0.00000000	     -6.71141179	     -8.49106567	     23.77336390
      6.54000000	     -5.30244740	      3.03379155	    -18.92361687	     -0.01917157	      0.64306817	      0.17571283	    -15.54550224	     -5.87351345	      7.12374926	    -22.07405748	     -6.97104563	     -5.70432271	      0.00000000	     34.76386602	     -1.56147516	     -5.51309340	    -27.14152251	     -0.23385691	    -18.08735374	      0.00000000	     -6.49479036	     -9.45185023	     24.75627219
      6.55000000	     -5.24754693	      3.85142437	    -19.33969287	     -0.00505982	      0.64375326	      0.17528122	    -13.12123884	     -6.56963328	      8.20695456	    -26.98033874	    -11.11788391	     -7.99215058	      0.00000000	     34.62124966	     -0.46247601	     -5.84917796	    -29.03572514	      1.92403626	    -18.40458182	      0.00000000	     -6.31941735	    -10.59674347	     25.86994314
      6.56000000	     -5.17326392	      4.79635142	    -19.94685086	      0.00853662	      0.64468142	      0.17512269	    -10.13548083	     -7.24557453	      9.45396468	    -32.48477821	    -14.47583420	    -10.26744942	      0.00000000	     34.04531943	      0.67447846	     -6.42665542	    -30.00715748	      3.96134668	    -18.63582483	      0.00000000	     -6.14307916	    -11.92381424	     27.03794631
      6.57000000	     -5.06513757	      5.85770969	    -20.68771270	      0.02163519	      0.64575029	      0.17516196	     -6.74808285	     -7.87489241	     10.79039766	    -38.28206566	    -16.82422295	    -12.67540750	      0.00000000	     33.14786364	      1.85169054	     -7.25286749	    -30.23178487	      5.78187658	    -18.73007840	      0.00000000	     -5.96441775	    -13.38432779	     28.10507855
      6.58000000	     -4.87057083	      6.96631424	    -21.44199065	      0.03434116	      0.64696875	      0.17527717	     -3.22787827	     -8.40843104	     12.09381415	    -43.99134058	    -18.21348645	    -15.33299441	      0.00000000	     31.99932113	      3.06039652	     -8.33667753	    -29.94599638	      7.35224418	    -18.63552101	      0.00000000	     -5.87066940	    -14.88303901	     28.82648898
      6.59000000	     -4.66067649	      7.93910452	    -22.07381204	      0.04680991	      0.64844612	      0.17539248	      0.19490558	     -8.60141078	     13.41035517	    -49.19617389	    -18.95263273	    -18.44757360	      0.00000000	     30.64980149	      4.21368763	     -9.33519932	    -29.27250575	      8.84385761	    -18.07532923	      0.00000000	     -5.85312454	    -16.17137204	     29.07693154
      6.60000000	     -4.38215448	      8.71496153	    -22.50152232	      0.05918330	      0.65029254	      0.17539343	      3.35850191	     -8.50953059	     14.50361350	    -53.73091181	    -19.00105552	    -21.59747426	      0.00000000	     29.09938953	      5.29162429	    -10.29818215	    -28.39201416	     10.15814017	    -17.21149885	      0.00000000	     -6.03017925	    -17.19313913	     28.76596735
      6.61000000	     -4.09596548	      9.20193691	    -22.65863025	      0.07156851	      0.65255402	      0.17522981	      6.20358398	     -8.06683543	     15.31840350	    -57.47719567	    -18.50223594	    -24.58738544	      0.00000000	     27.37198167	      6.22969695	    -11.04155052	    -27.37276162	     11.36613584	    -16.02305928	      0.00000000	     -6.38544324	    -17.82921786	     27.93572420
      6.62000000	     -3.84609377	      9.37340087	    -22.52314735	      0.08399660	      0.65519069	      0.17486709	      8.75172761	     -7.29287264	     15.79498828	    -60.43401147	    -17.55239787	    -27.16522302	      0.00000000	     25.50534652	      6.98573384	    -11.50180185	    -26.26839594	     12.47981289	    -14.62334233	      0.00000000	     -6.89200275	    -18.03735720	     26.65157147
      6.63000000	     -3.72842173	      9.29758682	    -22.05519292	      0.09654013	      0.65806153	      0.17420426	     11.12999119	     -6.29546824	     15.87135805	    -62.64300764	    -16.11384664	    -29.03131706	      0.00000000	     23.54035111	      7.66563675	    -11.32287555	    -24.91723263	     13.10961161	    -13.69714819	      0.00000000	     -7.38920984	    -17.84450329	     25.06586990
      6.64000000	     -3.63719110	      8.82421948	    -21.44319877	      0.10907162	      0.66114525	      0.17351701	     13.20490967	     -4.92470488	     15.73503812	    -64.13483372	    -14.66406740	    -30.62734501	      0.00000000	     21.43546754	      7.92874120	    -11.11548849	    -23.61895222	     13.97697172	    -12.13219181	      0.00000000	     -8.00741387	    -17.18562408	     23.53873060
      6.65000000	     -3.75870020	      8.38345308	    -20.58698561	      0.12165294	      0.66399719	      0.17257122	     15.40016730	     -3.64018334	     15.30805918	    -65.06149905	    -13.20914842	    -31.87102058	      0.00000000	     19.45387492	      8.25771198	    -10.45770629	    -22.09231592	     14.36882491	    -11.32433396	      0.00000000	     -8.36058008	    -16.43427472	     21.87015888
      6.66000000	     -3.89044874	      7.67994313	    -19.56042976	      0.13422105	      0.66679042	      0.17148793	     17.39069738	     -2.20296149	     14.65184720	    -65.41167622	    -11.74438822	    -32.68546729	      0.00000000	     17.35983050	      8.35133804	     -9.43008694	    -20.54447585	     14.76090687	    -10.41896401	      0.00000000	     -8.79414646	    -15.34528097	     20.21990548
      6.67000000	     -3.98848612	      6.86520765	    -18.37658983	      0.14687222	      0.66942917	      0.17033003	     19.20781529	     -0.83659004	     13.73871400	    -65.21445176	    -10.09423169	    -33.03266091	      0.00000000	     15.14146980	      8.32914795	     -8.19088154	    -18.89324696	     15.04730395	     -9.63693739	      0.00000000	     -9.23572940	    -14.14215808	     18.68647732
      6.68000000	     -4.26109121	      6.11832570	    -16.98523660	      0.15942760	      0.67154251	      0.16905510	     21.16284024	      0.36406501	     12.65964058	    -64.56342617	     -8.70811138	    -33.52612553	      0.00000000	     13.18437189	      8.27015937	     -6.75103125	    -17.32975561	     15.29621381	     -9.03496102	      0.00000000	     -9.45139126	    -12.95069331	     16.98210404
      6.69000000	     -4.25360418	      5.30024715	    -15.50210111	      0.17202421	      0.67359436	      0.16775332	     22.72998941	      1.36099596	     11.41985002	    -63.43995023	     -6.64906187	    -33.11656537	      0.00000000	     10.86667657	      8.18285456	     -4.95976605	    -15.62947924	     15.19774996	     -8.97316481	      0.00000000	     -9.96794533	    -11.78344577	     15.38080205
      6.70000000	     -4.37762687	      4.56780398	    -13.83644835	      0.18450829	      0.67512770	      0.16641793	     24.37063118	      2.14816076	     10.08667523	    -61.86055003	     -5.08108642	    -32.89657016	      0.00000000	      8.80362580	      8.02128594	     -3.11821239	    -14.07965352	     15.19714189	     -8.73140913	      0.00000000	    -10.29362203	    -10.69324867	     13.68252039
      6.71000000	     -4.41734940	      3.89498535	    -12.06770507	      0.19693141	      0.67633670	      0.16511231	     25.82813085	      2.69972946	      8.73614223	    -59.82016876	     -3.70488563	    -32.59379029	      0.00000000	      6.73690095	      7.80997105	     -1.28968268	    -12.62472206	     15.29364759	     -8.33957327	      0.00000000	    -10.68365833	     -9.72865029	     11.98176995
      6.72000000	     -4.38177831	      3.34939996	    -10.19449951	      0.20926777	      0.67719140	      0.16382375	     27.11591793	      2.95362395	      7.40440943	    -57.35511581	     -2.31141004	    -32.09590500	      0.00000000	      4.70099772	      7.61278057	      0.47292117	    -11.26722990	     15.33423409	     -7.94341778	      0.00000000	    -11.13501680	     -8.95249138	     10.20568526
      6.73000000	     -4.34872705	      3.03068667	     -8.25760365	      0.22149583	      0.67760731	      0.16254534	     28.32452192	      2.84044514	      6.16677002	    -54.51262607	     -0.83509657	    -31.19730333	      0.00000000	      2.76548934	      7.53286593	      2.23868764	     -9.96182363	     15.16699674	     -7.76724523	      0.00000000	    -11.55183399	     -8.46240349	      8.35707015
      6.74000000	     -4.19751427	      2.75294705	     -6.34019752	      0.23369861	      0.67776970	      0.16138474	     29.17750299	      2.60812686	      5.12776488	    -51.13139941	      0.00595574	    -30.70696678	      0.00000000	      0.79725105	      7.36739724	      3.67211125	     -8.80698242	     15.32933873	     -7.08194240	      0.00000000	    -12.09228343	     -8.06390678	      6.65594602
      6.75000000	     -4.04018131	      2.69085116	     -4.44744618	      0.24584731	      0.67753593	      0.16023709	     29.84998503	      2.07569318	      4.27730939	    -47.32865069	      0.81037877	    -29.91339970	      0.00000000	     -1.11536543	      7.32828737	      5.00839292	     -7.69538681	     15.35998687	     -6.53239494	      0.00000000	    -12.62548944	     -7.91543677	      4.99578483
